<?xml version="1.0" encoding="UTF-8" standalone="no"?>
<svg
   width="25.83337"
   height="19.166599"
   viewBox="0 0 25.83337 19.166599"
   fill="none"
   version="1.1"
   id="svg15"
   sodipodi:docname="Property 1=Interface, Property 2=Menu.svg"
   inkscape:version="1.1.1 (c3084ef, 2021-09-22)"
   xmlns:inkscape="http://www.inkscape.org/namespaces/inkscape"
   xmlns:sodipodi="http://sodipodi.sourceforge.net/DTD/sodipodi-0.dtd"
   xmlns="http://www.w3.org/2000/svg"
   xmlns:svg="http://www.w3.org/2000/svg">
  <defs
     id="defs19" />
  <sodipodi:namedview
     id="namedview17"
     pagecolor="#ffffff"
     bordercolor="#666666"
     borderopacity="1.0"
     inkscape:pageshadow="2"
     inkscape:pageopacity="0.0"
     inkscape:pagecheckerboard="0"
     showgrid="false"
     showguides="false"
     inkscape:zoom="17.975"
     inkscape:cx="12.934631"
     inkscape:cy="9.4297636"
     inkscape:window-width="1312"
     inkscape:window-height="969"
     inkscape:window-x="0"
     inkscape:window-y="1105"
     inkscape:window-maximized="0"
     inkscape:current-layer="svg15" />
  <path
     fill-rule="evenodd"
     clip-rule="evenodd"
     d="m 25.83337,9.5833 c 0,-0.6904 -0.5597,-1.25 -1.25,-1.25 H 1.25 c -0.69036,0 -1.25,0.5596 -1.25,1.25 0,0.6903 0.55964,1.25 1.25,1.25 h 23.33337 c 0.6903,0 1.25,-0.5597 1.25,-1.25 z"
     fill="#ffffff"
     id="path9" />
  <path
     fill-rule="evenodd"
     clip-rule="evenodd"
     d="m 25.83337,1.25 c 0,-0.6904 -0.5597,-1.25 -1.25,-1.25 H 1.25 C 0.55964,0 0,0.5596 0,1.25 0,1.9403 0.55964,2.5 1.25,2.5 h 23.33337 c 0.6903,0 1.25,-0.5597 1.25,-1.25 z"
     fill="#ffffff"
     id="path11" />
  <path
     fill-rule="evenodd"
     clip-rule="evenodd"
     d="m 25.83337,17.9166 c 0,-0.6903 -0.5597,-1.25 -1.25,-1.25 H 1.25 c -0.69036,0 -1.25,0.5597 -1.25,1.25 0,0.6904 0.55964,1.25 1.25,1.25 h 23.33337 c 0.6903,0 1.25,-0.5596 1.25,-1.25 z"
     fill="#ffffff"
     id="path13" />
</svg>
