<?xml version="1.0" encoding="UTF-8" standalone="no"?>
<svg
   width="18.384205"
   height="18.415134"
   viewBox="0 0 18.384205 18.415134"
   fill="none"
   version="1.1"
   id="svg13"
   sodipodi:docname="logo-instagram-see-powerplay-dj-on-social-media.svg"
   inkscape:version="1.1.1 (c3084ef, 2021-09-22)"
   xmlns:inkscape="http://www.inkscape.org/namespaces/inkscape"
   xmlns:sodipodi="http://sodipodi.sourceforge.net/DTD/sodipodi-0.dtd"
   xmlns="http://www.w3.org/2000/svg"
   xmlns:svg="http://www.w3.org/2000/svg">
  <defs
     id="defs17" />
  <sodipodi:namedview
     id="namedview15"
     pagecolor="#ffffff"
     bordercolor="#666666"
     borderopacity="1.0"
     inkscape:pageshadow="2"
     inkscape:pageopacity="0.0"
     inkscape:pagecheckerboard="0"
     showgrid="false"
     inkscape:zoom="29.958333"
     inkscape:cx="9.1961057"
     inkscape:cy="9.596662"
     inkscape:window-width="1312"
     inkscape:window-height="969"
     inkscape:window-x="178"
     inkscape:window-y="1149"
     inkscape:window-maximized="0"
     inkscape:current-layer="svg13" />
  <path
     d="m 9.19208,5.957565 c -1.7949,0 -3.25,1.45512 -3.25,3.25002 0,1.7949 1.4551,3.25 3.25,3.25 1.7949,0 3.25,-1.4551 3.25,-3.25 0,-1.7949 -1.4551,-3.25002 -3.25,-3.25002 z"
     fill="#ffffff"
     id="path9" />
  <path
     fill-rule="evenodd"
     clip-rule="evenodd"
     d="m 3.96162,0.289035 c 3.44816,-0.38538 7.01286,-0.38538 10.46096,0 1.8984,0.21218 3.4296,1.70796 3.6524,3.61301 0.4123,3.52504 0.4123,7.08604 0,10.61104 -0.2228,1.9051 -1.754,3.4008 -3.6524,3.613 -3.4481,0.3854 -7.0128,0.3854 -10.46096,0 -1.8984,-0.2122 -3.42959,-1.7079 -3.65241,-3.613 -0.41228,-3.525 -0.41228,-7.086 0,-10.61104 0.22282,-1.90506 1.75401,-3.40083 3.65241,-3.61301 z m 10.23046,2.91853 c -0.5523,0 -1,0.44772 -1,1 0,0.55229 0.4477,1 1,1 0.5523,0 1,-0.44771 1,-1 0,-0.55228 -0.4477,-1 -1,-1 z m -9.75,6.00002 c 0,-2.62337 2.12665,-4.75002 4.75,-4.75002 2.6234,0 4.75,2.12665 4.75,4.75002 0,2.6233 -2.1266,4.75 -4.75,4.75 -2.62335,0 -4.75,-2.1267 -4.75,-4.75 z"
     fill="#ffffff"
     id="path11" />
</svg>
