<?xml version="1.0" encoding="UTF-8" standalone="no"?>
<svg
   width="10.15"
   height="18.25"
   viewBox="0 0 10.15 18.25"
   fill="#ffffff"
   version="1.1"
   id="svg101"
   sodipodi:docname="logo-facebook-see-powerplay-dj-on-social-media.svg"
   inkscape:version="1.1.1 (c3084ef, 2021-09-22)"
   xmlns:inkscape="http://www.inkscape.org/namespaces/inkscape"
   xmlns:sodipodi="http://sodipodi.sourceforge.net/DTD/sodipodi-0.dtd"
   xmlns="http://www.w3.org/2000/svg"
   xmlns:svg="http://www.w3.org/2000/svg">
  <defs
     id="defs105" />
  <sodipodi:namedview
     id="namedview103"
     pagecolor="#ffffff"
     bordercolor="#666666"
     borderopacity="1.0"
     inkscape:pageshadow="2"
     inkscape:pageopacity="0.0"
     inkscape:pagecheckerboard="0"
     showgrid="false"
     inkscape:zoom="29.958333"
     inkscape:cx="5.123783"
     inkscape:cy="1.5187761"
     inkscape:window-width="1296"
     inkscape:window-height="969"
     inkscape:window-x="144"
     inkscape:window-y="1201"
     inkscape:window-maximized="0"
     inkscape:current-layer="svg101" />
  <path
     d="M 7.325,0 C 6.0984,0 4.922,0.48728 4.0546,1.35463 3.1873,2.22199 2.7,3.39837 2.7,4.625 V 7.2 H 0.225 C 0.10074,7.2 0,7.3007 0,7.425 v 3.4 c 0,0.1243 0.10074,0.225 0.225,0.225 H 2.7 v 6.975 c 0,0.1243 0.10074,0.225 0.225,0.225 h 3.4 c 0.1243,0 0.225,-0.1007 0.225,-0.225 V 11.05 h 2.4969 c 0.1033,0 0.1933,-0.0703 0.2183,-0.1704 l 0.85,-3.4 C 10.1507,7.3376 10.0433,7.2 9.8969,7.2 H 6.55 V 4.625 C 6.55,4.41946 6.6317,4.22233 6.777,4.07699 6.9223,3.93165 7.1195,3.85 7.325,3.85 h 2.6 c 0.1243,0 0.225,-0.10074 0.225,-0.225 v -3.4 C 10.15,0.10074 10.0493,0 9.925,0 Z"
     fill="#ffffff"
     id="path99" />
</svg>
