<?xml version="1.0" encoding="UTF-8" standalone="no"?>
<svg
   width="20.228828"
   height="14.610382"
   viewBox="0 0 20.228828 14.610382"
   fill="none"
   version="1.1"
   id="svg11"
   sodipodi:docname="logo-youtube-see-powerplay-dj-on-social-media.svg"
   inkscape:version="1.1.1 (c3084ef, 2021-09-22)"
   xmlns:inkscape="http://www.inkscape.org/namespaces/inkscape"
   xmlns:sodipodi="http://sodipodi.sourceforge.net/DTD/sodipodi-0.dtd"
   xmlns="http://www.w3.org/2000/svg"
   xmlns:svg="http://www.w3.org/2000/svg">
  <defs
     id="defs15" />
  <sodipodi:namedview
     id="namedview13"
     pagecolor="#ffffff"
     bordercolor="#666666"
     borderopacity="1.0"
     inkscape:pageshadow="2"
     inkscape:pageopacity="0.0"
     inkscape:pagecheckerboard="0"
     showgrid="false"
     inkscape:zoom="29.958333"
     inkscape:cx="10.130737"
     inkscape:cy="4.3226704"
     inkscape:window-width="1312"
     inkscape:window-height="969"
     inkscape:window-x="234"
     inkscape:window-y="1185"
     inkscape:window-maximized="0"
     inkscape:current-layer="svg11" />
  <path
     fill-rule="evenodd"
     clip-rule="evenodd"
     d="m 5.1032575,0.1957275 c 3.33572,-0.26097 6.6866195,-0.26097 10.0223205,0 l 2.2407,0.1753 c 1.2481,0.09764 2.269099,1.03304 2.4754,2.26781 0.5162,3.08947 0.5162,6.24327 0,9.3327695 -0.2063,1.2347 -1.2273,2.170101 -2.4754,2.267801 l -2.2407,0.1753 c -3.3357,0.2609 -6.6866005,0.2609 -10.0223205,0 l -2.2407,-0.1753 c -1.24807,-0.0977 -2.26909,-1.033101 -2.4754,-2.267801 -0.51621,-3.0894995 -0.51621,-6.2432995 0,-9.3327695 0.20631,-1.23477 1.22733,-2.17017 2.4754,-2.26781 z m 3.01112,9.57958 v -4.94024 c 0,-0.23319 0.2544,-0.37723 0.4543,-0.25725 l 4.1170005,2.47019 c 0.1942,0.1165 0.1942,0.3979 0,0.5144 L 8.5686775,10.032608 c -0.1999,0.12 -0.4543,-0.0241 -0.4543,-0.2573005 z"
     fill="#ffffff"
     id="path9" />
</svg>
