<?xml version="1.0" encoding="UTF-8" standalone="no"?>
<svg
   width="21.501869"
   height="21.340418"
   viewBox="0 0 21.501869 21.340418"
   fill="none"
   version="1.1"
   id="svg99"
   sodipodi:docname="Property 1=vuesax, Property 2=linear, Property 3=star-1.svg"
   inkscape:version="1.1.1 (c3084ef, 2021-09-22)"
   xmlns:inkscape="http://www.inkscape.org/namespaces/inkscape"
   xmlns:sodipodi="http://sodipodi.sourceforge.net/DTD/sodipodi-0.dtd"
   xmlns="http://www.w3.org/2000/svg"
   xmlns:svg="http://www.w3.org/2000/svg">
  <defs
     id="defs103" />
  <sodipodi:namedview
     id="namedview101"
     pagecolor="#ffffff"
     bordercolor="#666666"
     borderopacity="1.0"
     inkscape:pageshadow="2"
     inkscape:pageopacity="0.0"
     inkscape:pagecheckerboard="0"
     showgrid="false"
     inkscape:zoom="29.958333"
     inkscape:cx="10.764951"
     inkscape:cy="11.065369"
     inkscape:window-width="1296"
     inkscape:window-height="969"
     inkscape:window-x="0"
     inkscape:window-y="1105"
     inkscape:window-maximized="0"
     inkscape:current-layer="svg99" />
  <path
     d="m 12.478838,2.1825 1.76,3.52 c 0.24,0.49 0.88,0.96 1.42,1.05 l 3.19,0.53 c 2.04,0.34 2.52,1.81999 1.05,3.27999 l -2.48,2.48 c -0.42,0.42 -0.65,1.23 -0.52,1.81 l 0.71,3.07 c 0.56,2.43 -0.73,3.37 -2.88,2.1 l -2.99,-1.77 c -0.54,-0.32 -1.43,-0.32 -1.9799998,0 l -2.99,1.77 c -2.14,1.27 -3.44,0.32 -2.88,-2.1 l 0.71,-3.07 c 0.13,-0.58 -0.1,-1.39 -0.52,-1.81 l -2.48,-2.48 c -1.45999995,-1.46 -0.98999995,-2.93999 1.05,-3.27999 l 3.19,-0.53 c 0.53,-0.09 1.17,-0.56 1.41,-1.05 l 1.76,-3.52 c 0.96,-1.91 2.5199998,-1.91 3.4699998,0 z"
     fill="#7FEEF0"
     stroke="#7FEEF0"
     stroke-width="1.5"
     stroke-linecap="round"
     stroke-linejoin="round"
     id="path97" />
</svg>
