<?xml version="1.0" encoding="UTF-8" standalone="no"?>
<!-- Generator: Adobe Illustrator 26.5.0, SVG Export Plug-In . SVG Version: 6.00 Build 0)  -->

<svg
   version="1.1"
   id="Layer_1"
   x="0px"
   y="0px"
   viewBox="0 0 667 216.60001"
   xml:space="preserve"
   sodipodi:docname="logo-2.svg"
   width="667"
   height="216.60001"
   inkscape:version="1.1.1 (c3084ef, 2021-09-22)"
   xmlns:inkscape="http://www.inkscape.org/namespaces/inkscape"
   xmlns:sodipodi="http://sodipodi.sourceforge.net/DTD/sodipodi-0.dtd"
   xmlns="http://www.w3.org/2000/svg"
   xmlns:svg="http://www.w3.org/2000/svg"><defs
   id="defs220" /><sodipodi:namedview
   id="namedview218"
   pagecolor="#ffffff"
   bordercolor="#666666"
   borderopacity="1.0"
   inkscape:pageshadow="2"
   inkscape:pageopacity="0.0"
   inkscape:pagecheckerboard="0"
   showgrid="false"
   inkscape:zoom="1.4229798"
   inkscape:cx="333.45519"
   inkscape:cy="108.57498"
   inkscape:window-width="1280"
   inkscape:window-height="667"
   inkscape:window-x="0"
   inkscape:window-y="25"
   inkscape:window-maximized="0"
   inkscape:current-layer="Layer_1" />
<style
   type="text/css"
   id="style169">
	.st0{fill:#001F25;}
	.st1{fill:#107600;}
	.st2{fill:#3BA10D;}
</style>
<g
   id="g215"
   transform="translate(-62.5,-62.6)">
	<g
   id="g181">
		<path
   class="st0"
   d="m 300.9,189.6 -74.5,-78.3 v 76.8 c 0,1.2 -1,2.2 -2.1,2.2 h -23.2 c -1.2,0 -2.1,-1 -2.1,-2.2 V 73.8 c 0,-1.2 1,-2.2 2.1,-2.2 h 27.4 c 0.6,0 1.1,0.2 1.6,0.7 L 302,148.7 V 73.8 c 0,-1.2 1,-2.2 2.1,-2.2 h 23 c 1.2,0 2.1,1 2.1,2.2 v 114.3 c 0,1.2 -1,2.2 -2.1,2.2 h -24.7 c -0.5,0 -1.1,-0.3 -1.5,-0.7 z"
   id="path171" />
		<path
   class="st0"
   d="m 631.6,167.1 v 21 c 0,1.2 -1,2.2 -2.1,2.2 h -24.3 c -1.2,0 -2.1,-1 -2.1,-2.2 V 73.8 c 0,-1.2 1,-2.2 2.1,-2.2 h 87.9 c 27.6,0 36.4,8.8 36.4,36.9 v 24.4 c 0,24.8 -8.7,34.1 -36.4,34.1 z M 701,108.6 c 0,-5.9 -2.4,-7.9 -8.1,-7.9 h -61.4 v 40.8 h 61.4 c 5.7,0 8.1,-2.4 8.1,-7.8 z"
   id="path173" />
		<path
   class="st0"
   d="M 167.1,118.1 H 91.7 V 101 h 91.4 c 1.2,0 2.1,-1 2.1,-2.2 v -25 c 0,-1.2 -1,-2.2 -2.1,-2.2 H 88.2 C 74,71.6 62.5,83.2 62.5,97.4 v 20.5 c 0,14.3 11.5,25.8 25.7,25.8 h 71.7 v 17.1 H 68.6 c -1.2,0 -2.1,1 -2.1,2.2 v 25.1 c 0,1.2 1,2.2 2.1,2.2 h 94.9 c 14.2,0 25.7,-11.6 25.7,-25.8 v -24.2 c -0.1,-12.3 -9.9,-22.2 -22.1,-22.2 z"
   id="path175" />
		<path
   class="st1"
   d="M 574.7,137.7 H 357.5 v 28.2 h 217.2 z"
   id="path177" />
		<path
   class="st2"
   d="M 567.2,190.3 H 591 c 1.2,0 2.2,-1 2.2,-2.2 -1.3,-69.5 -57.7,-125.5 -127.1,-125.5 -69.4,0 -125.8,56 -127,125.5 0,1.2 1,2.2 2.2,2.2 h 23.8 c 1.2,0 2.1,-0.9 2.1,-2.1 0.8,-38.4 23.2,-71.4 55.6,-87.3 -5,10.6 -9,23.1 -12,36.9 h -16 c -4.4,8.6 -7.7,18.1 -9.8,28.2 h 21.6 c -0.7,7.2 -1,14.6 -1.1,22.1 0,1.2 1,2.2 2.2,2.2 h 23.8 c 1.2,0 2.1,-1 2.1,-2.1 0.1,-7.6 0.4,-15.1 1,-22.2 H 498 c 0.6,7.1 0.9,14.5 1,22.2 0,1.2 1,2.1 2.1,2.1 h 23.8 c 1.2,0 2.2,-1 2.2,-2.2 -0.1,-7.6 -0.4,-14.9 -1.1,-22.1 h 21.6 c -2.1,-10.1 -5.4,-19.6 -9.8,-28.2 h -16 c -3,-13.8 -7,-26.3 -12,-36.9 32.3,15.9 54.7,48.9 55.6,87.3 -0.3,1.1 0.6,2.1 1.8,2.1 z M 438.4,137.7 c 5.8,-28.2 16,-46.9 27.7,-46.9 11.7,0 22,18.8 27.7,46.9 z"
   id="path179" />
	</g>
	<g
   id="g213">
		<path
   class="st0"
   d="m 161.9,265.1 c -0.4,0 -0.8,-0.1 -1.1,-0.4 -0.3,-0.3 -0.4,-0.7 -0.4,-1.1 v -41.8 c 0,-0.5 0.1,-0.8 0.4,-1.1 0.3,-0.3 0.7,-0.4 1.1,-0.4 h 27.6 c 0.5,0 0.8,0.1 1.1,0.4 0.3,0.3 0.4,0.7 0.4,1.1 v 3.6 c 0,0.4 -0.1,0.8 -0.4,1.1 -0.3,0.3 -0.7,0.4 -1.1,0.4 h -21.4 v 12.4 H 188 c 0.5,0 0.8,0.1 1.1,0.4 0.3,0.3 0.4,0.7 0.4,1.1 v 3.3 c 0,0.4 -0.1,0.8 -0.4,1.1 -0.3,0.3 -0.7,0.4 -1.1,0.4 h -19.9 v 12.8 H 190 c 0.5,0 0.8,0.2 1.1,0.4 0.3,0.3 0.4,0.7 0.4,1.2 v 3.5 c 0,0.5 -0.1,0.8 -0.4,1.1 -0.3,0.3 -0.7,0.4 -1.1,0.4 z"
   id="path183" />
		<path
   class="st0"
   d="m 198.1,265.1 c -0.4,0 -0.8,-0.1 -1.1,-0.4 -0.3,-0.3 -0.4,-0.7 -0.4,-1.1 v -30.3 c 0,-0.5 0.1,-0.8 0.4,-1.1 0.3,-0.3 0.7,-0.4 1.1,-0.4 h 4.4 c 0.4,0 0.8,0.1 1.1,0.4 0.3,0.3 0.4,0.7 0.4,1.1 v 2.7 c 1.1,-1.4 2.5,-2.6 4.3,-3.5 1.7,-0.9 3.9,-1.4 6.4,-1.4 2.7,0 5,0.6 6.9,1.8 1.9,1.2 3.4,2.8 4.4,5 1,2.2 1.5,4.7 1.5,7.7 v 18 c 0,0.5 -0.2,0.8 -0.4,1.1 -0.3,0.3 -0.7,0.4 -1.1,0.4 h -4.7 c -0.4,0 -0.8,-0.1 -1.1,-0.4 -0.3,-0.3 -0.4,-0.7 -0.4,-1.1 V 246 c 0,-2.7 -0.7,-4.8 -2,-6.3 -1.3,-1.5 -3.2,-2.3 -5.7,-2.3 -2.4,0 -4.3,0.8 -5.7,2.3 -1.4,1.5 -2.1,3.6 -2.1,6.3 v 17.6 c 0,0.5 -0.2,0.8 -0.4,1.1 -0.3,0.3 -0.7,0.4 -1.1,0.4 z"
   id="path185" />
		<path
   class="st0"
   d="m 247.5,265.8 c -4.6,0 -8.3,-1.4 -11,-4.1 -2.7,-2.7 -4.2,-6.6 -4.5,-11.5 0,-0.4 0,-1 0,-1.8 0,-0.8 0,-1.4 0,-1.8 0.2,-3.2 0.9,-5.9 2.2,-8.2 1.3,-2.3 3,-4.1 5.3,-5.4 2.2,-1.3 4.9,-1.9 8,-1.9 3.4,0 6.2,0.7 8.5,2.1 2.3,1.4 4,3.4 5.2,5.9 1.2,2.5 1.8,5.5 1.8,8.8 v 1.2 c 0,0.5 -0.2,0.8 -0.4,1.1 -0.3,0.3 -0.7,0.4 -1.1,0.4 h -21.6 c 0,0.3 0,0.4 0,0.5 0,1.6 0.4,3.1 1,4.4 0.6,1.4 1.5,2.5 2.6,3.3 1.1,0.8 2.5,1.3 4.1,1.3 1.3,0 2.4,-0.2 3.3,-0.6 0.9,-0.4 1.6,-0.9 2.2,-1.4 0.6,-0.5 0.9,-0.9 1.2,-1.2 0.4,-0.5 0.7,-0.8 0.9,-0.9 0.2,-0.1 0.6,-0.2 1.1,-0.2 h 4.6 c 0.4,0 0.7,0.1 1,0.4 0.3,0.3 0.4,0.6 0.4,1 0,0.7 -0.4,1.5 -1,2.5 -0.6,1 -1.6,1.9 -2.8,2.8 -1.2,0.9 -2.8,1.7 -4.6,2.3 -2,0.7 -4,1 -6.4,1 z m -7.6,-20 h 15.5 v -0.2 c 0,-1.8 -0.3,-3.3 -0.9,-4.6 -0.6,-1.3 -1.5,-2.4 -2.7,-3.2 -1.2,-0.8 -2.5,-1.2 -4.2,-1.2 -1.6,0 -3,0.4 -4.2,1.2 -1.2,0.8 -2,1.9 -2.6,3.2 -0.6,1.3 -0.9,2.9 -0.9,4.6 z"
   id="path187" />
		<path
   class="st0"
   d="m 269.2,265.1 c -0.4,0 -0.8,-0.1 -1.1,-0.4 -0.3,-0.3 -0.4,-0.7 -0.4,-1.1 v -30.3 c 0,-0.4 0.1,-0.8 0.4,-1.1 0.3,-0.3 0.7,-0.4 1.1,-0.4 h 4.3 c 0.5,0 0.9,0.2 1.2,0.4 0.3,0.3 0.4,0.7 0.4,1.1 v 2.8 c 0.9,-1.4 2.2,-2.5 3.7,-3.2 1.5,-0.7 3.3,-1.1 5.4,-1.1 h 2.6 c 0.4,0 0.8,0.1 1.1,0.4 0.3,0.3 0.4,0.7 0.4,1.1 v 3.8 c 0,0.4 -0.1,0.8 -0.4,1.1 -0.3,0.3 -0.6,0.4 -1.1,0.4 h -4.6 c -2.1,0 -3.8,0.6 -5,1.8 -1.2,1.2 -1.8,2.9 -1.8,5 v 18.2 c 0,0.5 -0.2,0.8 -0.4,1.1 -0.3,0.3 -0.7,0.4 -1.2,0.4 z"
   id="path189" />
		<path
   class="st0"
   d="m 304.8,279.2 c -3,0 -5.5,-0.4 -7.4,-1.2 -2,-0.8 -3.5,-1.8 -4.6,-2.9 -1.1,-1.1 -1.9,-2.3 -2.4,-3.4 -0.5,-1.1 -0.7,-2 -0.8,-2.6 0,-0.5 0.1,-0.9 0.4,-1.2 0.3,-0.3 0.7,-0.4 1.1,-0.4 h 4.6 c 0.4,0 0.7,0.1 1,0.3 0.3,0.2 0.5,0.5 0.6,1.1 0.3,0.6 0.6,1.2 1.1,1.9 0.5,0.7 1.2,1.3 2.1,1.8 0.9,0.5 2.2,0.8 3.9,0.8 1.8,0 3.3,-0.2 4.5,-0.7 1.2,-0.5 2.1,-1.3 2.8,-2.6 0.6,-1.2 0.9,-2.9 0.9,-5 v -4.4 c -1,1.2 -2.4,2.3 -4,3.1 -1.6,0.8 -3.7,1.2 -6.1,1.2 -2.3,0 -4.3,-0.4 -6,-1.2 -1.7,-0.8 -3.1,-1.8 -4.2,-3.2 -1.1,-1.4 -1.9,-3 -2.5,-4.8 -0.6,-1.8 -0.9,-3.8 -1,-6 0,-1.2 0,-2.4 0,-3.5 0.1,-2.1 0.4,-4.1 1,-5.9 0.6,-1.8 1.4,-3.5 2.5,-4.9 1.1,-1.4 2.5,-2.5 4.2,-3.3 1.7,-0.8 3.7,-1.2 6,-1.2 2.5,0 4.6,0.5 6.3,1.4 1.7,0.9 3.1,2.1 4.1,3.4 v -2.6 c 0,-0.4 0.1,-0.8 0.4,-1.1 0.3,-0.3 0.6,-0.4 1.1,-0.4 h 4.4 c 0.4,0 0.8,0.2 1.1,0.4 0.3,0.3 0.4,0.7 0.4,1.1 v 31 c 0,3 -0.5,5.6 -1.6,7.8 -1.1,2.2 -2.7,4 -5,5.2 -2.2,1.4 -5.2,2 -8.9,2 z M 304.6,259 c 1.9,0 3.4,-0.4 4.6,-1.3 1.2,-0.9 2,-2 2.6,-3.3 0.6,-1.3 0.9,-2.7 1,-4 0,-0.6 0.1,-1.3 0.1,-2.1 0,-0.9 0,-1.6 -0.1,-2.1 -0.1,-1.4 -0.4,-2.8 -1,-4.1 -0.6,-1.3 -1.4,-2.4 -2.6,-3.3 -1.2,-0.9 -2.7,-1.3 -4.6,-1.3 -1.9,0 -3.5,0.4 -4.6,1.3 -1.1,0.9 -2,2 -2.5,3.4 -0.5,1.4 -0.8,2.9 -0.9,4.5 0,1.1 0,2.2 0,3.3 0.1,1.6 0.4,3.1 0.9,4.5 0.5,1.4 1.3,2.5 2.5,3.4 1.2,0.6 2.7,1.1 4.6,1.1 z"
   id="path191" />
		<path
   class="st0"
   d="m 332.7,277.3 c -0.3,0 -0.6,-0.1 -0.9,-0.4 -0.3,-0.3 -0.4,-0.6 -0.4,-0.9 0,-0.2 0,-0.3 0.1,-0.5 0,-0.1 0.1,-0.4 0.2,-0.6 l 5,-11.8 -12.3,-29 c -0.2,-0.5 -0.3,-0.8 -0.3,-1 0,-0.3 0.2,-0.7 0.4,-0.9 0.3,-0.3 0.6,-0.4 1,-0.4 h 4.4 c 0.5,0 0.9,0.1 1.2,0.4 0.3,0.2 0.4,0.5 0.5,0.8 l 9,21.9 9.2,-21.9 c 0.2,-0.3 0.4,-0.6 0.6,-0.8 0.2,-0.2 0.6,-0.4 1.1,-0.4 h 4.3 c 0.4,0 0.7,0.1 1,0.4 0.3,0.3 0.4,0.6 0.4,0.9 0,0.3 -0.1,0.6 -0.3,1.1 l -18.1,42 c -0.2,0.3 -0.4,0.6 -0.6,0.8 -0.3,0.2 -0.6,0.4 -1.1,0.4 h -4.4 z"
   id="path193" />
		<path
   class="st0"
   d="m 387.3,265.8 c -3.9,0 -7.2,-0.6 -9.8,-1.8 -2.6,-1.2 -4.6,-2.7 -6,-4.6 -1.4,-1.9 -2.1,-3.8 -2.2,-5.9 0,-0.3 0.1,-0.6 0.4,-0.9 0.3,-0.3 0.6,-0.4 1,-0.4 h 4.8 c 0.5,0 0.9,0.1 1.2,0.4 0.3,0.2 0.5,0.5 0.6,0.9 0.3,0.9 0.8,1.8 1.5,2.7 0.8,0.9 1.8,1.6 3.2,2.1 1.4,0.6 3.1,0.8 5.2,0.8 3.3,0 5.7,-0.6 7.3,-1.7 1.6,-1.1 2.4,-2.6 2.4,-4.5 0,-1.3 -0.4,-2.4 -1.3,-3.2 -0.8,-0.8 -2.1,-1.6 -3.9,-2.2 -1.8,-0.6 -4.1,-1.3 -7,-2.1 -3.1,-0.9 -5.8,-1.8 -7.9,-2.9 -2.1,-1.1 -3.7,-2.4 -4.8,-4 -1.1,-1.6 -1.6,-3.7 -1.6,-6.2 0,-2.4 0.7,-4.5 2,-6.4 1.3,-1.9 3.2,-3.4 5.6,-4.5 2.4,-1.1 5.3,-1.6 8.7,-1.6 2.7,0 5.1,0.4 7.2,1.1 2.1,0.7 3.8,1.7 5.2,2.9 1.4,1.2 2.5,2.5 3.2,3.9 0.7,1.4 1.1,2.7 1.1,4 0,0.3 -0.1,0.7 -0.4,0.9 -0.2,0.3 -0.6,0.4 -1,0.4 h -5 c -0.3,0 -0.7,-0.1 -1,-0.3 -0.3,-0.2 -0.6,-0.5 -0.8,-1 -0.2,-1.5 -1.1,-2.8 -2.6,-3.8 -1.5,-1 -3.5,-1.5 -6,-1.5 -2.5,0 -4.5,0.5 -6,1.4 -1.5,0.9 -2.3,2.4 -2.3,4.4 0,1.3 0.4,2.4 1.1,3.2 0.7,0.9 1.9,1.6 3.6,2.2 1.6,0.6 3.8,1.3 6.4,2.1 3.5,0.9 6.5,1.8 8.7,2.9 2.3,1.1 3.9,2.4 5,4 1.1,1.6 1.6,3.6 1.6,6.1 0,2.8 -0.7,5.2 -2.2,7.1 -1.5,2 -3.5,3.5 -6.2,4.5 -2.4,0.9 -5.5,1.5 -9,1.5 z"
   id="path195" />
		<path
   class="st0"
   d="m 423.8,265.8 c -3.4,0 -6.2,-0.6 -8.5,-1.8 -2.3,-1.2 -4,-2.9 -5.2,-5.1 -1.2,-2.2 -1.9,-4.7 -2,-7.6 0,-0.8 -0.1,-1.7 -0.1,-2.8 0,-1.1 0,-2.1 0.1,-2.8 0.1,-2.9 0.8,-5.4 2,-7.6 1.2,-2.2 3,-3.8 5.3,-5.1 2.3,-1.2 5.1,-1.8 8.4,-1.8 3.2,0 6,0.6 8.3,1.8 2.3,1.2 4,2.9 5.3,5.1 1.2,2.2 1.9,4.7 2.1,7.6 0,0.8 0.1,1.7 0.1,2.8 0,1.1 0,2.1 -0.1,2.8 -0.1,2.9 -0.8,5.4 -2,7.6 -1.2,2.2 -3,3.9 -5.2,5.1 -2.3,1.2 -5.1,1.8 -8.5,1.8 z m 0,-5.9 c 2.4,0 4.3,-0.8 5.6,-2.3 1.4,-1.5 2.1,-3.8 2.2,-6.7 0,-0.6 0.1,-1.5 0.1,-2.5 0,-1 0,-1.9 -0.1,-2.5 -0.1,-2.9 -0.9,-5.1 -2.2,-6.7 -1.4,-1.5 -3.2,-2.3 -5.6,-2.3 -2.4,0 -4.3,0.8 -5.7,2.3 -1.4,1.5 -2.1,3.8 -2.2,6.7 0,0.6 -0.1,1.5 -0.1,2.5 0,1 0,1.9 0.1,2.5 0.1,2.9 0.9,5.1 2.2,6.7 1.4,1.6 3.3,2.3 5.7,2.3 z"
   id="path197" />
		<path
   class="st0"
   d="m 446,265.1 c -0.5,0 -0.8,-0.1 -1.1,-0.4 -0.3,-0.3 -0.4,-0.7 -0.4,-1.1 v -42.5 c 0,-0.5 0.1,-0.8 0.4,-1.1 0.3,-0.3 0.7,-0.4 1.1,-0.4 h 4.4 c 0.4,0 0.8,0.1 1.1,0.4 0.3,0.3 0.4,0.7 0.4,1.1 v 42.5 c 0,0.5 -0.2,0.8 -0.4,1.1 -0.3,0.3 -0.7,0.4 -1.1,0.4 z"
   id="path199" />
		<path
   class="st0"
   d="m 470.7,265.8 c -2.7,0 -4.9,-0.6 -6.8,-1.8 -1.9,-1.2 -3.4,-2.9 -4.4,-5 -1,-2.2 -1.5,-4.7 -1.5,-7.6 v -18 c 0,-0.5 0.1,-0.8 0.4,-1.1 0.3,-0.3 0.7,-0.4 1.1,-0.4 h 4.7 c 0.5,0 0.8,0.1 1.1,0.4 0.3,0.3 0.4,0.7 0.4,1.1 V 251 c 0,5.7 2.5,8.6 7.5,8.6 2.4,0 4.3,-0.8 5.7,-2.3 1.4,-1.5 2.1,-3.6 2.1,-6.3 v -17.6 c 0,-0.5 0.1,-0.8 0.4,-1.1 0.3,-0.3 0.7,-0.4 1.1,-0.4 h 4.7 c 0.4,0 0.8,0.1 1.1,0.4 0.3,0.3 0.4,0.7 0.4,1.1 v 30.3 c 0,0.5 -0.1,0.8 -0.4,1.1 -0.3,0.3 -0.6,0.4 -1.1,0.4 H 483 c -0.5,0 -0.8,-0.1 -1.1,-0.4 -0.3,-0.3 -0.4,-0.7 -0.4,-1.1 V 261 c -1.1,1.5 -2.5,2.7 -4.2,3.6 -1.8,0.7 -3.9,1.2 -6.6,1.2 z"
   id="path201" />
		<path
   class="st0"
   d="m 509.4,265.1 c -2.5,0 -4.6,-0.4 -6.3,-1.3 -1.6,-0.9 -2.9,-2.2 -3.7,-4 -0.8,-1.8 -1.2,-3.9 -1.2,-6.4 v -15.5 h -5 c -0.5,0 -0.8,-0.1 -1.1,-0.4 -0.3,-0.3 -0.4,-0.7 -0.4,-1.1 v -3.1 c 0,-0.5 0.1,-0.8 0.4,-1.1 0.3,-0.3 0.7,-0.4 1.1,-0.4 h 5 v -10.6 c 0,-0.5 0.1,-0.8 0.4,-1.1 0.3,-0.3 0.7,-0.4 1.1,-0.4 h 4.4 c 0.4,0 0.8,0.1 1.1,0.4 0.3,0.3 0.4,0.7 0.4,1.1 v 10.6 h 8 c 0.4,0 0.8,0.1 1.1,0.4 0.3,0.3 0.4,0.7 0.4,1.1 v 3.1 c 0,0.5 -0.2,0.8 -0.4,1.1 -0.3,0.3 -0.7,0.4 -1.1,0.4 h -8 v 14.9 c 0,1.9 0.3,3.3 1,4.4 0.7,1 1.8,1.6 3.4,1.6 h 4.2 c 0.5,0 0.8,0.1 1.1,0.4 0.3,0.3 0.4,0.7 0.4,1.1 v 3.3 c 0,0.5 -0.1,0.8 -0.4,1.1 -0.3,0.3 -0.7,0.4 -1.1,0.4 z"
   id="path203" />
		<path
   class="st0"
   d="m 520.3,226 c -0.4,0 -0.8,-0.1 -1.1,-0.4 -0.3,-0.3 -0.4,-0.7 -0.4,-1.1 v -4.2 c 0,-0.4 0.1,-0.8 0.4,-1.1 0.3,-0.3 0.6,-0.4 1.1,-0.4 h 5.1 c 0.5,0 0.9,0.2 1.2,0.4 0.3,0.3 0.4,0.7 0.4,1.1 v 4.2 c 0,0.5 -0.2,0.8 -0.4,1.1 -0.3,0.3 -0.7,0.4 -1.2,0.4 z m 0.4,39.1 c -0.4,0 -0.8,-0.1 -1.1,-0.4 -0.3,-0.3 -0.4,-0.7 -0.4,-1.1 v -30.3 c 0,-0.5 0.1,-0.8 0.4,-1.1 0.3,-0.3 0.7,-0.4 1.1,-0.4 h 4.4 c 0.5,0 0.8,0.1 1.1,0.4 0.3,0.3 0.4,0.7 0.4,1.1 v 30.3 c 0,0.5 -0.1,0.8 -0.4,1.1 -0.3,0.3 -0.7,0.4 -1.1,0.4 z"
   id="path205" />
		<path
   class="st0"
   d="m 547.3,265.8 c -3.4,0 -6.2,-0.6 -8.5,-1.8 -2.3,-1.2 -4,-2.9 -5.2,-5.1 -1.2,-2.2 -1.9,-4.7 -2,-7.6 0,-0.8 -0.1,-1.7 -0.1,-2.8 0,-1.1 0,-2.1 0.1,-2.8 0.1,-2.9 0.8,-5.4 2,-7.6 1.2,-2.2 3,-3.8 5.3,-5.1 2.3,-1.2 5.1,-1.8 8.4,-1.8 3.2,0 6,0.6 8.3,1.8 2.3,1.2 4,2.9 5.3,5.1 1.2,2.2 1.9,4.7 2.1,7.6 0,0.8 0.1,1.7 0.1,2.8 0,1.1 0,2.1 -0.1,2.8 -0.1,2.9 -0.8,5.4 -2,7.6 -1.2,2.2 -3,3.9 -5.2,5.1 -2.3,1.2 -5.1,1.8 -8.5,1.8 z m 0,-5.9 c 2.4,0 4.3,-0.8 5.6,-2.3 1.4,-1.5 2.1,-3.8 2.2,-6.7 0,-0.6 0.1,-1.5 0.1,-2.5 0,-1 0,-1.9 -0.1,-2.5 -0.1,-2.9 -0.9,-5.1 -2.2,-6.7 -1.4,-1.5 -3.2,-2.3 -5.6,-2.3 -2.4,0 -4.3,0.8 -5.7,2.3 -1.4,1.5 -2.1,3.8 -2.2,6.7 0,0.6 -0.1,1.5 -0.1,2.5 0,1 0,1.9 0.1,2.5 0.1,2.9 0.9,5.1 2.2,6.7 1.4,1.6 3.3,2.3 5.7,2.3 z"
   id="path207" />
		<path
   class="st0"
   d="m 569.5,265.1 c -0.4,0 -0.8,-0.1 -1.1,-0.4 -0.3,-0.3 -0.4,-0.7 -0.4,-1.1 v -30.3 c 0,-0.5 0.1,-0.8 0.4,-1.1 0.3,-0.3 0.7,-0.4 1.1,-0.4 h 4.4 c 0.4,0 0.8,0.1 1.1,0.4 0.3,0.3 0.4,0.7 0.4,1.1 v 2.7 c 1.1,-1.4 2.5,-2.6 4.3,-3.5 1.7,-0.9 3.9,-1.4 6.4,-1.4 2.7,0 5,0.6 6.9,1.8 1.9,1.2 3.4,2.8 4.4,5 1,2.2 1.5,4.7 1.5,7.7 v 18 c 0,0.5 -0.1,0.8 -0.4,1.1 -0.3,0.3 -0.7,0.4 -1.1,0.4 h -4.7 c -0.4,0 -0.8,-0.1 -1.1,-0.4 -0.3,-0.3 -0.4,-0.7 -0.4,-1.1 V 246 c 0,-2.7 -0.7,-4.8 -2,-6.3 -1.3,-1.5 -3.2,-2.3 -5.7,-2.3 -2.4,0 -4.3,0.8 -5.7,2.3 -1.4,1.5 -2.1,3.6 -2.1,6.3 v 17.6 c 0,0.5 -0.2,0.8 -0.4,1.1 -0.3,0.3 -0.7,0.4 -1.1,0.4 z"
   id="path209" />
		<path
   class="st0"
   d="m 617.2,265.8 c -2.5,0 -4.7,-0.3 -6.4,-0.9 -1.8,-0.6 -3.2,-1.3 -4.4,-2.2 -1.1,-0.9 -2,-1.8 -2.5,-2.7 -0.5,-0.9 -0.8,-1.6 -0.9,-2.2 0,-0.5 0.1,-0.8 0.4,-1.1 0.3,-0.3 0.7,-0.4 1,-0.4 h 4.2 c 0.2,0 0.3,0 0.5,0.1 0.1,0.1 0.3,0.2 0.5,0.5 0.6,0.5 1.2,1 1.8,1.6 0.6,0.6 1.4,1 2.3,1.4 0.9,0.4 2.1,0.5 3.4,0.5 1.8,0 3.4,-0.4 4.6,-1.1 1.2,-0.7 1.9,-1.8 1.9,-3.2 0,-0.9 -0.3,-1.7 -0.8,-2.3 -0.5,-0.6 -1.5,-1.1 -2.9,-1.6 -1.4,-0.5 -3.3,-1 -5.8,-1.5 -2.5,-0.6 -4.5,-1.3 -6,-2.1 -1.5,-0.9 -2.7,-1.9 -3.4,-3.2 -0.7,-1.3 -1.1,-2.7 -1.1,-4.4 0,-1.6 0.5,-3.1 1.5,-4.6 1,-1.5 2.4,-2.8 4.4,-3.7 2,-0.9 4.3,-1.4 7.2,-1.4 2.3,0 4.2,0.3 5.9,0.9 1.7,0.6 3.1,1.3 4.2,2.1 1.1,0.8 1.9,1.7 2.5,2.5 0.5,0.9 0.8,1.6 0.9,2.2 0,0.4 -0.1,0.8 -0.4,1.1 -0.3,0.3 -0.6,0.4 -1,0.4 h -3.9 c -0.3,0 -0.5,0 -0.7,-0.1 -0.2,-0.1 -0.4,-0.2 -0.5,-0.4 -0.5,-0.4 -1,-0.9 -1.5,-1.4 -0.6,-0.5 -1.3,-1 -2.1,-1.3 -0.8,-0.4 -1.9,-0.5 -3.3,-0.5 -1.8,0 -3.2,0.4 -4.1,1.2 -0.9,0.8 -1.4,1.8 -1.4,3 0,0.7 0.2,1.4 0.6,2 0.4,0.6 1.3,1.1 2.5,1.6 1.3,0.5 3.2,1 5.7,1.5 2.8,0.6 5.1,1.3 6.7,2.3 1.7,1 2.9,2.1 3.6,3.4 0.7,1.3 1.1,2.7 1.1,4.3 0,1.9 -0.5,3.6 -1.6,5.1 -1.1,1.5 -2.7,2.7 -4.9,3.6 -2.1,0.5 -4.7,1 -7.8,1 z"
   id="path211" />
	</g>
</g>
</svg>
